HIERARCHY
ROOT Hips
{
	OFFSET 0.000000 0.000000 0.000000
	CHANNELS 6 Xposition Yposition Zposition Xrotation Yrotation Zrotation
	JOINT LeftUpLeg_virtual
	{
		OFFSET 0.000000 0.000000 0.000000
		CHANNELS 3 Xrotation Yrotation Zrotation
		JOINT LeftUpLeg
		{
			OFFSET 15.427100 -6.655098 0.678600
			CHANNELS 3 Xrotation Yrotation Zrotation
			JOINT LeftLeg
			{
				OFFSET 4.081073 -39.591068 13.024000
				CHANNELS 3 Xrotation Yrotation Zrotation
				JOINT LeftFoot
				{
					OFFSET -4.081074 -37.707932 -15.979700
					CHANNELS 3 Xrotation Yrotation Zrotation
					JOINT LeftToeBase
					{
						OFFSET 5.346399 -15.068900 20.645000
						CHANNELS 3 Xrotation Yrotation Zrotation
						JOINT LeftToe_End
						{
							OFFSET 2.754700 0.931300 11.300900
							CHANNELS 3 Xrotation Yrotation Zrotation
							End Site
							{
								OFFSET 0 0 0
							}
						}
					}
				}
			}
		}
	}
	JOINT RightUpLeg_virtual
	{
		OFFSET 0.000000 0.000000 0.000000
		CHANNELS 3 Xrotation Yrotation Zrotation
		JOINT RightUpLeg
		{
			OFFSET -15.569500 -6.655098 0.678600
			CHANNELS 3 Xrotation Yrotation Zrotation
			JOINT RightLeg
			{
				OFFSET -4.081825 -39.591045 13.023800
				CHANNELS 3 Xrotation Yrotation Zrotation
				JOINT RightFoot
				{
					OFFSET 4.081824 -37.707954 -15.979600
					CHANNELS 3 Xrotation Yrotation Zrotation
					JOINT RightToeBase
					{
						OFFSET -5.346400 -15.068900 20.645000
						CHANNELS 3 Xrotation Yrotation Zrotation
						JOINT RightToe_End
						{
							OFFSET -2.754700 0.931300 11.300900
							CHANNELS 3 Xrotation Yrotation Zrotation
							End Site
							{
								OFFSET 0 0 0
							}
						}
					}
				}
			}
		}
	}
	JOINT Spine_virtual
	{
		OFFSET 0.000000 0.000000 0.000000
		CHANNELS 3 Xrotation Yrotation Zrotation
		JOINT Spine
		{
			OFFSET -0.279200 12.230698 -2.892100
			CHANNELS 3 Xrotation Yrotation Zrotation
			JOINT Spine1
			{
				OFFSET -0.232667 10.192268 -1.242267
				CHANNELS 3 Xrotation Yrotation Zrotation
				JOINT Spine1_split
				{
					OFFSET -0.232667 10.192268 -1.242267
					CHANNELS 3 Xrotation Yrotation Zrotation
					JOINT Spine2
					{
						OFFSET -0.232667 10.192268 -1.242267
						CHANNELS 3 Xrotation Yrotation Zrotation
						JOINT Neck_virtual
						{
							OFFSET 0.000000 0.000000 0.000000
							CHANNELS 3 Xrotation Yrotation Zrotation
							JOINT Neck
							{
								OFFSET -0.418800 17.814194 8.416900
								CHANNELS 3 Xrotation Yrotation Zrotation
								JOINT Head
								{
									OFFSET 0.000000 7.031097 3.806800
									CHANNELS 3 Xrotation Yrotation Zrotation
									JOINT HeadTop_End
									{
										OFFSET 0.000000 24.646606 12.978600
										CHANNELS 3 Xrotation Yrotation Zrotation
										End Site
										{
											OFFSET 0 0 0
										}
									}
								}
							}
						}
						JOINT LeftShoulder_virtual
						{
							OFFSET 0.000000 0.000000 0.000000
							CHANNELS 3 Xrotation Yrotation Zrotation
							JOINT LeftShoulder
							{
								OFFSET 8.476499 7.247704 -3.868750
								CHANNELS 3 Xrotation Yrotation Zrotation
								JOINT LeftShoulder_split
								{
									OFFSET 8.476499 7.247704 -3.868750
									CHANNELS 3 Xrotation Yrotation Zrotation
									JOINT LeftArm
									{
										OFFSET 9.308998 -2.777710 0.208600
										CHANNELS 3 Xrotation Yrotation Zrotation
										JOINT LeftForeArm
										{
											OFFSET 29.972298 0.000000 0.000000
											CHANNELS 3 Xrotation Yrotation Zrotation
											JOINT LeftHand
											{
												OFFSET 26.026505 0.000000 0.000000
												CHANNELS 3 Xrotation Yrotation Zrotation
												End Site
												{
													OFFSET 0 0 0
												}
											}
										}
									}
								}
							}
						}
						JOINT RightShoulder_virtual
						{
							OFFSET 0.000000 0.000000 0.000000
							CHANNELS 3 Xrotation Yrotation Zrotation
							JOINT RightShoulder
							{
								OFFSET -7.570500 7.247704 -3.868750
								CHANNELS 3 Xrotation Yrotation Zrotation
								JOINT RightShoulder_split
								{
									OFFSET -7.570500 7.247704 -3.868750
									CHANNELS 3 Xrotation Yrotation Zrotation
									JOINT RightArm
									{
										OFFSET -9.308998 -2.777710 0.208500
										CHANNELS 3 Xrotation Yrotation Zrotation
										JOINT RightForeArm
										{
											OFFSET -29.972300 0.000000 0.000000
											CHANNELS 3 Xrotation Yrotation Zrotation
											JOINT RightHand
											{
												OFFSET -26.026505 0.000000 0.000000
												CHANNELS 3 Xrotation Yrotation Zrotation
												End Site
												{
													OFFSET 0 0 0
												}
											}
										}
									}
								}
							}
						}
					}
				}
			}
		}
	}
}
MOTION
Frames: 5
Frame Time: 0.03333333
-22.863487 73.214890 -9.163555 0.000000 0.000000 0.000000 35.459795 7.234805 -4.259972 -57.921384 -20.275982 29.013981 36.622481 4.138032 -3.246871 7.016359 8.974516 -31.849145 -1.396421 0.022150 -0.490764 0.000000 0.000000 0.000000 35.884004 6.448719 -4.314116 -55.176372 -0.340460 -30.703012 47.222982 3.805728 3.100338 -18.753683 -8.171764 24.444127 2.320849 0.991745 0.975435 0.000000 0.000000 0.000000 36.240611 4.934716 -4.559745 9.017650 1.796893 0.944730 11.694142 1.878800 1.279414 0.933870 0.329781 0.170671 0.000000 0.000000 0.000000 10.333809 2.009795 1.058185 -0.634816 -1.867100 -2.449413 -30.270630 -11.171492 3.485669 0.000000 0.000000 0.000000 10.730506 1.883458 0.802329 0.748204 -20.919515 -10.184626 0.906918 0.495056 -2.611047 14.822240 -10.959873 -49.391540 -3.236222 -72.257616 -3.234703 0.000000 0.000000 0.000000 10.498343 2.198011 1.466457 2.794838 26.458027 7.855185 0.474566 3.162302 -0.099146 -4.827252 41.696751 18.129820 -0.972673 20.045731 1.323262 0.000000 0.000000 0.000000 
-21.999916 72.128281 -9.114799 0.000000 0.000000 0.000000 38.150957 7.276658 -3.852408 -62.931847 -19.266159 27.832097 39.177695 2.924037 -3.284909 5.901581 7.642732 -31.815472 -1.599149 -0.117180 -0.101515 0.000000 0.000000 0.000000 38.671708 6.000299 -3.666750 -58.215820 0.989100 -32.416327 48.141728 4.871628 3.304150 -19.528537 -8.423188 25.097648 1.851951 1.057071 0.899619 0.000000 0.000000 0.000000 39.141219 4.865195 -4.030775 9.339216 2.121032 0.969339 11.954972 2.040925 1.311403 0.942406 0.302736 0.192638 0.000000 0.000000 0.000000 10.563475 2.193133 1.036229 -0.748658 -2.046145 -2.629258 -32.083072 -12.028666 2.692921 0.000000 0.000000 0.000000 11.022444 2.044081 0.805436 0.772743 -21.561890 -9.798053 0.873059 0.353973 -2.792230 14.709743 -10.828117 -49.046004 -3.955599 -74.452019 -4.006647 0.000000 0.000000 0.000000 10.686358 2.377346 1.518758 2.778602 26.858370 8.026052 0.687728 3.097030 -0.198058 -7.335113 41.614270 15.082444 -1.272656 20.571818 1.427543 0.000000 0.000000 0.000000 
-21.133827 71.046173 -8.950104 0.000000 0.000000 0.000000 40.747307 7.648888 -3.339348 -68.007736 -18.002861 26.716239 41.756853 1.689407 -3.466972 4.670433 6.164928 -31.222045 -1.659069 -0.249914 0.020585 0.000000 0.000000 0.000000 41.309609 5.903694 -2.924815 -60.998971 2.571725 -34.561000 49.431192 6.059530 3.726883 -20.263039 -8.638752 25.932174 1.313059 1.103110 0.855788 0.000000 0.000000 0.000000 41.950639 5.020499 -3.344825 9.650953 2.421750 0.996192 12.131355 2.206885 1.305181 1.013321 0.242208 0.181438 0.000000 0.000000 0.000000 10.718758 2.386942 0.986525 -0.840133 -2.252530 -2.767282 -33.723195 -12.971464 1.856350 0.000000 0.000000 0.000000 11.224238 2.223942 0.800045 0.830332 -22.187572 -9.312064 0.983880 0.109815 -3.020086 15.304436 -11.664123 -48.830535 -4.570716 -76.409654 -4.701069 0.000000 0.000000 0.000000 10.802806 2.552821 1.539396 2.768980 26.995010 8.297220 0.903162 3.007010 -0.235494 -10.852059 41.325619 12.738905 -1.531525 21.185140 1.409085 0.000000 0.000000 0.000000 
-20.287716 69.825035 -8.638954 0.000000 0.000000 0.000000 43.192801 8.361103 -2.715845 -72.934727 -16.619023 25.698402 44.311221 0.486058 -3.813354 3.466368 4.760523 -30.179423 -1.705851 -0.360576 -0.083874 0.000000 0.000000 0.000000 43.728941 6.279042 -2.122658 -63.369559 4.470394 -37.120405 51.134437 7.260336 4.323811 -21.366480 -8.975512 26.586728 1.239001 1.142360 0.870902 0.000000 0.000000 0.000000 44.554570 5.476132 -2.512815 9.957673 2.689394 0.993884 12.284023 2.401478 1.281002 1.031085 0.199220 0.191913 0.000000 0.000000 0.000000 10.874002 2.607969 0.933510 -0.996377 -2.483531 -2.911817 -35.279324 -13.948133 0.952659 0.000000 0.000000 0.000000 11.400404 2.442797 0.805645 0.917635 -22.699898 -8.762029 1.181128 -0.096760 -3.210738 16.158351 -13.221822 -48.722499 -5.066340 -77.888008 -5.272060 0.000000 0.000000 0.000000 10.911140 2.738813 1.534397 2.804738 26.961072 8.552634 1.142542 2.867600 -0.208769 -14.582980 40.894682 10.626355 -1.711008 22.102444 1.297383 0.000000 0.000000 0.000000 
-19.532831 68.355698 -8.235397 0.000000 0.000000 0.000000 45.377188 9.405787 -1.995728 -77.493031 -15.303660 24.733860 46.891141 -0.693308 -4.267136 2.165888 3.644989 -28.871165 -1.720041 -0.458446 -0.305297 0.000000 0.000000 0.000000 45.926165 7.185407 -1.309269 -65.188760 6.683787 -39.972326 53.385872 8.365505 5.038730 -23.056133 -9.549807 26.792554 1.671559 1.184378 0.958654 0.000000 0.000000 0.000000 46.875568 6.206208 -1.577433 10.279185 2.928353 0.931464 12.480366 2.653317 1.262021 0.955047 0.164152 0.278843 0.000000 0.000000 0.000000 11.108354 2.878996 0.895469 -1.360096 -2.753211 -3.110196 -36.870628 -14.887782 -0.033644 0.000000 0.000000 0.000000 11.623472 2.712877 0.838246 1.039734 -23.012757 -8.173203 1.356675 -0.229465 -3.288693 16.811992 -15.124885 -48.692340 -5.609889 -78.753440 -5.848261 0.000000 0.000000 0.000000 11.096520 2.959324 1.524904 2.905194 26.896648 8.680418 1.376695 2.729167 -0.078699 -17.727710 40.490837 8.167417 -1.758134 23.217818 1.151479 0.000000 0.000000 0.000000 
